<svg width="200" height="200" viewBox="0 0 200 200" xmlns="http://www.w3.org/2000/svg">
  <!-- Outer glow -->
  <defs>
    <radialGradient id="glow" cx="50%" cy="50%" r="50%">
      <stop offset="0%" style="stop-color:#4CAF50;stop-opacity:0.3"/>
      <stop offset="70%" style="stop-color:#4CAF50;stop-opacity:0.1"/>
      <stop offset="100%" style="stop-color:#4CAF50;stop-opacity:0"/>
    </radialGradient>
    <radialGradient id="globe" cx="30%" cy="30%" r="70%">
      <stop offset="0%" style="stop-color:#66BB6A"/>
      <stop offset="100%" style="stop-color:#4CAF50"/>
    </radialGradient>
  </defs>
  
  <!-- Glow effect -->
  <circle cx="100" cy="100" r="95" fill="url(#glow)"/>
  
  <!-- Main globe -->
  <circle cx="100" cy="100" r="80" fill="url(#globe)" stroke="#45a049" stroke-width="2"/>
  
  <!-- Network grid -->
  <g stroke="rgba(255,255,255,0.6)" stroke-width="1.5" fill="none">
    <!-- Horizontal lines -->
    <ellipse cx="100" cy="100" rx="80" ry="20"/>
    <ellipse cx="100" cy="100" rx="80" ry="40"/>
    <ellipse cx="100" cy="100" rx="80" ry="60"/>
    
    <!-- Vertical lines -->
    <ellipse cx="100" cy="100" rx="20" ry="80"/>
    <ellipse cx="100" cy="100" rx="40" ry="80"/>
    <ellipse cx="100" cy="100" rx="60" ry="80"/>
  </g>
  
  <!-- Connection points -->
  <g fill="white">
    <circle cx="100" cy="20" r="3"/>
    <circle cx="100" cy="180" r="3"/>
    <circle cx="20" cy="100" r="3"/>
    <circle cx="180" cy="100" r="3"/>
    <circle cx="100" cy="100" r="4"/>
    <circle cx="60" cy="60" r="2"/>
    <circle cx="140" cy="60" r="2"/>
    <circle cx="60" cy="140" r="2"/>
    <circle cx="140" cy="140" r="2"/>
  </g>
</svg>